<svg width="50" height="48" viewBox="0 0 50 48" fill="none" xmlns="http://www.w3.org/2000/svg">
<mask id="mask0_26_2" style="mask-type:luminance" maskUnits="userSpaceOnUse" x="1" y="0" width="48" height="48">
<path d="M49 0H1V48H49V0Z" fill="white"/>
</mask>
<g mask="url(#mask0_26_2)">
<mask id="mask1_26_2" style="mask-type:luminance" maskUnits="userSpaceOnUse" x="1" y="2" width="49" height="45">
<path d="M49.5 2H1.5V46.2105H49.5V2Z" fill="white"/>
</mask>
<g mask="url(#mask1_26_2)">
<path d="M25.3406 22.8025C29.6448 22.8025 32.9925 19.3071 32.9925 15.0173C32.9925 10.7276 29.4854 7.39111 25.1812 7.39111C20.877 7.39111 17.5293 10.8865 17.5293 15.0173C17.5293 19.3071 21.0364 22.8025 25.3406 22.8025ZM25.1812 10.5687C25.3406 10.5687 25.3406 10.5687 25.1812 10.5687C27.7318 10.5687 29.8042 12.6342 29.8042 15.1762C29.8042 17.7183 27.7318 19.6249 25.1812 19.6249C22.6306 19.6249 20.7176 17.5594 20.7176 15.1762C20.7176 12.6342 22.79 10.5687 25.1812 10.5687Z" fill="#132258"/>
<path d="M48.9335 21.8487C45.9046 19.1477 41.9193 17.7178 37.7745 17.8767H36.4992C36.1804 19.1477 35.7021 20.2599 35.0645 21.2132C36.0209 21.0543 36.818 21.0543 37.7745 21.0543C40.8034 20.8954 43.8323 21.8487 46.2235 23.5964V35.0357H49.4118V22.3253L48.9335 21.8487Z" fill="#132258"/>
<path d="M34.1088 7.70826C34.9058 5.8017 37.1376 4.84842 39.21 5.64282C41.123 6.43722 42.0795 8.66154 41.2824 10.727C40.6448 12.1569 39.21 13.1102 37.7753 13.1102C37.4565 13.1102 36.9782 13.1102 36.6594 12.9513C36.8188 13.7457 36.8188 14.5401 36.8188 15.1756V16.1289C37.1376 16.1289 37.4565 16.2878 37.7753 16.2878C41.7607 16.2878 44.949 13.1102 44.949 9.29706C44.949 5.32506 41.7607 2.14746 37.9347 2.14746C35.3841 2.14746 33.1523 3.4185 31.877 5.64282C32.674 6.11946 33.4711 6.75498 34.1088 7.70826Z" fill="#132258"/>
<path d="M15.9352 21.3724C15.2975 20.4191 14.8193 19.3069 14.5005 18.0359H13.2252C9.08037 17.877 5.09501 19.3069 2.06613 21.849L1.58789 22.3257V35.0361H4.77618V23.5967C7.32681 21.849 10.1963 20.8957 13.2252 21.0546C14.1816 21.0546 15.1381 21.2135 15.9352 21.3724Z" fill="#132258"/>
<path d="M13.2246 16.1295C13.5435 16.1295 13.8623 16.1295 14.1811 15.9706V15.0174C14.1811 14.223 14.1811 13.4286 14.3405 12.793C14.0217 12.9519 13.5435 12.9519 13.2246 12.9519C11.1522 12.9519 9.39869 11.2042 9.39869 9.1388C9.39869 7.07336 11.1522 5.32568 13.2246 5.32568C14.8188 5.32568 16.2535 6.27896 16.8912 7.70888C17.5288 6.91448 18.4853 6.12008 19.2824 5.48456C17.21 2.14809 12.9058 1.03593 9.5581 3.10136C6.2104 5.1668 5.09449 9.45656 7.16688 12.793C8.4422 14.8585 10.674 16.1295 13.2246 16.1295Z" fill="#132258"/>
<path d="M38.4128 31.3817L38.094 30.9051C34.9057 27.4097 30.4421 25.3443 25.6596 25.5032C20.8772 25.3443 16.2542 27.4097 13.0659 30.9051L12.7471 31.3817V43.4566C12.7471 44.8865 13.863 46.1576 15.4571 46.1576H35.8622C37.2969 46.1576 38.5722 44.8865 38.5722 43.4566V31.3817H38.4128ZM35.2245 42.98H15.9354V32.4939C18.486 29.9518 21.9931 28.6808 25.6596 28.6808C29.1668 28.5219 32.6739 29.9518 35.2245 32.4939V42.98Z" fill="#132258"/>
</g>
</g>
</svg>
