<svg width="49" height="27" viewBox="0 0 49 27" fill="none" xmlns="http://www.w3.org/2000/svg">
<g clip-path="url(#clip0_26_27)">
<path d="M43.6506 12.2819C43.0751 12.2861 42.505 12.3959 41.9678 12.6061L36.2275 7.82142C36.3687 7.29981 36.4692 6.7587 36.4692 6.18834C36.4692 2.81004 33.8026 0.0947266 30.4848 0.0947266C27.167 0.0947266 24.5003 2.81004 24.5003 6.18834C24.5003 7.15356 24.7397 8.05298 25.1275 8.86221L18.164 17.2421C17.8852 17.189 17.6025 17.1605 17.319 17.1568C16.8905 17.1568 16.4859 17.23 16.0934 17.3372L9.9581 11.09C10.0658 10.6927 10.1376 10.2808 10.1376 9.8445C10.1376 7.14381 8.00238 4.96961 5.35006 4.96961C2.69775 4.96961 0.5625 7.14381 0.5625 9.8445C0.5625 12.5452 2.69775 14.7194 5.35006 14.7194C5.77855 14.7194 6.1831 14.6463 6.57568 14.539L12.7109 20.7862C12.5959 21.1911 12.5355 21.6102 12.5314 22.0317C12.5314 24.7324 14.6667 26.9066 17.319 26.9066C19.9713 26.9066 22.1065 24.7324 22.1065 22.0317C22.1065 21.454 21.9916 20.9105 21.8121 20.3962L28.7852 12.0065C29.3286 12.1674 29.8911 12.2819 30.4848 12.2819C31.4295 12.2766 32.3593 12.0418 33.1969 11.597L38.9396 16.3817C38.8946 16.6377 38.869 16.8968 38.863 17.1568C38.863 19.8575 40.9983 22.0317 43.6506 22.0317C46.3029 22.0317 48.4381 19.8575 48.4381 17.1568C48.4381 14.4561 46.3029 12.2819 43.6506 12.2819Z" fill="#132258"/>
</g>
<defs>
<clipPath id="clip0_26_27">
<rect width="48" height="27" fill="white" transform="translate(0.5)"/>
</clipPath>
</defs>
</svg>
