<svg width="37" height="48" viewBox="0 0 37 48" fill="none" xmlns="http://www.w3.org/2000/svg">
<g clip-path="url(#clip0_26_17)">
<mask id="mask0_26_17" style="mask-type:luminance" maskUnits="userSpaceOnUse" x="0" y="0" width="37" height="48">
<path d="M36.5 0H0.5V48H36.5V0Z" fill="white"/>
</mask>
<g mask="url(#mask0_26_17)">
<mask id="mask1_26_17" style="mask-type:luminance" maskUnits="userSpaceOnUse" x="0" y="0" width="37" height="48">
<path d="M36.34 0H0.5V48H36.34V0Z" fill="white"/>
</mask>
<g mask="url(#mask1_26_17)">
<path d="M9.56374 33.9949C8.75268 33.1802 9.17548 33.4099 7.21921 32.8839C6.33161 32.6449 5.55134 32.1855 4.84574 31.6352L0.611208 42.0639C0.201474 43.0736 0.966808 44.1705 2.05134 44.1292L6.96908 43.9408L10.3515 47.5296C11.0981 48.3208 12.4085 48.0742 12.8183 47.0646L17.6763 35.1002C16.6645 35.6664 15.5417 35.9983 14.3807 35.9983C12.5607 35.9983 10.8508 35.2867 9.56374 33.9949ZM36.2272 42.0639L31.9927 31.6352C31.2871 32.1864 30.5068 32.6449 29.6192 32.8839C27.6527 33.4127 28.0839 33.1821 27.2747 33.9949C25.9876 35.2867 24.2768 35.9983 22.4568 35.9983C21.2957 35.9983 20.1729 35.6655 19.1612 35.1002L24.0192 47.0646C24.4289 48.0742 25.7403 48.3208 26.486 47.5296L29.8693 43.9408L34.7871 44.1292C35.8716 44.1705 36.6369 43.0727 36.2272 42.0639ZM25.0459 31.8733C26.472 30.4155 26.6353 30.5411 28.6663 29.9852C29.9627 29.6299 30.9763 28.5939 31.3235 27.2683C32.0216 24.6058 31.8405 24.9274 33.7455 22.9792C34.6947 22.0089 35.0652 20.5942 34.718 19.2686C34.0208 16.608 34.0199 16.9792 34.718 14.3158C35.0652 12.9902 34.6947 11.5755 33.7455 10.6052C31.8405 8.65706 32.0216 8.97769 31.3235 6.31613C30.9763 4.9905 29.9627 3.95456 28.6663 3.59925C26.0641 2.88581 26.3777 3.07238 24.4709 1.12331C23.5217 0.153002 22.1376 -0.226685 20.8412 0.128627C18.24 0.841127 18.6031 0.842064 15.9972 0.128627C14.7008 -0.226685 13.3167 0.152065 12.3675 1.12331C10.4625 3.07144 10.7761 2.88581 8.17308 3.59925C6.87668 3.95456 5.86308 4.9905 5.51588 6.31613C4.81868 8.97769 4.99881 8.65706 3.09387 10.6052C2.14467 11.5755 1.77321 12.9902 2.12134 14.3158C2.81854 16.9746 2.81947 16.6033 2.12134 19.2677C1.77414 20.5933 2.14467 22.008 3.09387 22.9792C4.99881 24.9274 4.81774 24.6058 5.51588 27.2683C5.86308 28.5939 6.87668 29.6299 8.17308 29.9852C10.2619 30.5571 10.4177 30.4671 11.7925 31.8733C13.0273 33.1361 14.9509 33.3621 16.4349 32.4189C17.0284 32.0405 17.7168 31.8396 18.4197 31.8396C19.1226 31.8396 19.811 32.0405 20.4044 32.4189C21.8875 33.3621 23.8111 33.1361 25.0459 31.8733ZM9.61414 16.4946C9.61414 11.523 13.5565 7.49269 18.4192 7.49269C23.2819 7.49269 27.2243 11.523 27.2243 16.4946C27.2243 21.4661 23.2819 25.4964 18.4192 25.4964C13.5565 25.4964 9.61414 21.4661 9.61414 16.4946Z" fill="#132258"/>
</g>
</g>
</g>
<defs>
<clipPath id="clip0_26_17">
<rect width="36" height="48" fill="white" transform="translate(0.5)"/>
</clipPath>
</defs>
</svg>
