<svg width="49" height="41" viewBox="0 0 49 41" fill="none" xmlns="http://www.w3.org/2000/svg">
<g clip-path="url(#clip0_26_29)">
<mask id="mask0_26_29" style="mask-type:luminance" maskUnits="userSpaceOnUse" x="0" y="0" width="49" height="41">
<path d="M48.5 0H0.5V41H48.5V0Z" fill="white"/>
</mask>
<g mask="url(#mask0_26_29)">
<mask id="mask1_26_29" style="mask-type:luminance" maskUnits="userSpaceOnUse" x="0" y="0" width="49" height="41">
<path d="M48.5 0H0.5V40.7089H48.5V0Z" fill="white"/>
</mask>
<g mask="url(#mask1_26_29)">
<path d="M43.0886 8.52554H38.019V3.45592C38.019 2.55955 37.6629 1.6999 37.0291 1.06608C36.3953 0.432251 35.5356 0.0761719 34.6393 0.0761719H14.3608C13.4644 0.0761719 12.6048 0.432251 11.9709 1.06608C11.3371 1.6999 10.981 2.55955 10.981 3.45592V8.52554H5.91142C4.56687 8.52554 3.27739 9.05966 2.32665 10.0104C1.37592 10.9611 0.841797 12.2506 0.841797 13.5952V37.2534C0.841797 38.1497 1.19788 39.0094 1.8317 39.6432C2.46553 40.2771 3.32518 40.6331 4.22154 40.6331H44.7785C45.6749 40.6331 46.5345 40.2771 47.1683 39.6432C47.8022 39.0094 48.1582 38.1497 48.1582 37.2534V13.5952C48.1582 12.2506 47.6241 10.9611 46.6734 10.0104C45.7227 9.05966 44.4332 8.52554 43.0886 8.52554ZM14.3608 3.45592H34.6393V8.52554H14.3608V3.45592ZM44.7785 37.2534H4.22154V22.0445H17.7405V30.4939H31.2595V22.0445H44.7785V37.2534ZM21.1203 22.0445H27.8798V27.1141H21.1203V22.0445ZM4.22154 18.6648V13.5952C4.22154 13.147 4.39958 12.7172 4.7165 12.4002C5.03341 12.0833 5.46323 11.9053 5.91142 11.9053H43.0886C43.5368 11.9053 43.9666 12.0833 44.2836 12.4002C44.6005 12.7172 44.7785 13.147 44.7785 13.5952V18.6648H4.22154Z" fill="#132258"/>
</g>
</g>
</g>
<defs>
<clipPath id="clip0_26_29">
<rect width="48" height="41" fill="white" transform="translate(0.5)"/>
</clipPath>
</defs>
</svg>
