<svg  width="48" height="42" viewBox="0 0 48 42" fill="none" xmlns="http://www.w3.org/2000/svg">
<g clip-path="url(#clip0_13_106)">
<mask id="mask0_13_106" style="mask-type:luminance" maskUnits="userSpaceOnUse" x="0" y="0" width="48" height="42">
<path d="M48 0.5H0V41.2089H48V0.5Z" fill="white"/>
</mask>
<g mask="url(#mask0_13_106)">
<path d="M42.5886 9.02554H37.519V3.95592C37.519 3.05955 37.1629 2.1999 36.5291 1.56608C35.8953 0.932251 35.0356 0.576172 34.1393 0.576172H13.8608C12.9644 0.576172 12.1048 0.932251 11.4709 1.56608C10.8371 2.1999 10.481 3.05955 10.481 3.95592V9.02554H5.41142C4.06687 9.02554 2.77739 9.55966 1.82665 10.5104C0.875916 11.4611 0.341797 12.7506 0.341797 14.0952V37.7534C0.341797 38.6497 0.697876 39.5094 1.3317 40.1432C1.96553 40.7771 2.82518 41.1331 3.72154 41.1331H44.2785C45.1749 41.1331 46.0345 40.7771 46.6683 40.1432C47.3022 39.5094 47.6582 38.6497 47.6582 37.7534V14.0952C47.6582 12.7506 47.1241 11.4611 46.1734 10.5104C45.2227 9.55966 43.9332 9.02554 42.5886 9.02554ZM13.8608 3.95592H34.1393V9.02554H13.8608V3.95592ZM44.2785 37.7534H3.72154V22.5445H17.2405V30.9939H30.7595V22.5445H44.2785V37.7534ZM20.6203 22.5445H27.3798V27.6141H20.6203V22.5445ZM3.72154 19.1648V14.0952C3.72154 13.647 3.89958 13.2172 4.2165 12.9002C4.53341 12.5833 4.96323 12.4053 5.41142 12.4053H42.5886C43.0368 12.4053 43.4666 12.5833 43.7836 12.9002C44.1005 13.2172 44.2785 13.647 44.2785 14.0952V19.1648H3.72154Z" fill="black"/>
</g>
</g>
<defs>
<clipPath id="clip0_13_106">
<rect width="48" height="41" fill="white" transform="translate(0 0.5)"/>
</clipPath>
</defs>
</svg>
