<svg width="48" height="39" viewBox="0 0 48 39" fill="none" xmlns="http://www.w3.org/2000/svg">
<g clip-path="url(#clip0_13_97)">
<mask id="mask0_13_97" style="mask-type:luminance" maskUnits="userSpaceOnUse" x="0" y="0" width="48" height="39">
<path d="M48 0.5H0V38.42H48V0.5Z" fill="white"/>
</mask>
<g mask="url(#mask0_13_97)">
<path d="M29.1416 9.12402H41.1395V12.5693H29.1416V9.12402Z" fill="black"/>
<path d="M29.1416 17.7373H41.1395V21.1826H29.1416V17.7373Z" fill="black"/>
<path d="M29.1416 26.3506H41.1395V29.7959H29.1416V26.3506Z" fill="black"/>
<path d="M44.5674 0.51123H3.43187C2.52299 0.512143 1.65161 0.875424 1.00893 1.52135C0.366264 2.16727 0.00481376 3.04307 0.00390625 3.95655V34.9644C0.00481376 35.8779 0.366264 36.7537 1.00893 37.3996C1.65161 38.0455 2.52299 38.4088 3.43187 38.4097H44.5674C45.4761 38.4084 46.3472 38.0449 46.9898 37.3991C47.6324 36.7533 47.994 35.8777 47.9953 34.9644V3.95655C47.9944 3.04307 47.633 2.16727 46.9903 1.52135C46.3477 0.875424 45.4763 0.512143 44.5674 0.51123ZM3.43187 3.95655H22.2856V34.9644H3.43187V3.95655ZM25.7136 34.9644V3.95655H44.5674L44.5708 34.9644H25.7136Z" fill="black"/>
</g>
</g>
<defs>
<clipPath id="clip0_13_97">
<rect width="48" height="38" fill="white" transform="translate(0 0.5)"/>
</clipPath>
</defs>
</svg>
