<svg width="73" height="73" viewBox="0 0 73 73" fill="none" xmlns="http://www.w3.org/2000/svg">
<path d="M56.429 39.4947C56.0775 39.1426 55.66 38.8632 55.2004 38.6726C54.7408 38.482 54.2482 38.3839 53.7506 38.3839C53.2531 38.3839 52.7604 38.482 52.3008 38.6726C51.8413 38.8632 51.4238 39.1426 51.0722 39.4947L45.0335 45.5334C42.2339 44.6999 37.0097 42.8057 33.6987 39.4947C30.3876 36.1836 28.4934 30.9594 27.66 28.1598L33.6987 22.1211C34.0508 21.7696 34.3301 21.3521 34.5207 20.8925C34.7113 20.4329 34.8094 19.9403 34.8094 19.4427C34.8094 18.9452 34.7113 18.4525 34.5207 17.9929C34.3301 17.5333 34.0508 17.1159 33.6987 16.7643L18.5451 1.61076C18.1936 1.25865 17.7761 0.979298 17.3165 0.788701C16.8569 0.598104 16.3642 0.5 15.8667 0.5C15.3692 0.5 14.8765 0.598104 14.4169 0.788701C13.9573 0.979298 13.5398 1.25865 13.1883 1.61076L2.91418 11.8849C1.47459 13.3245 0.663873 15.302 0.69418 17.3212C0.781313 22.7159 2.20954 41.4533 16.9767 56.2204C31.7439 70.9876 50.4813 72.412 55.8797 72.503H55.9858C57.9861 72.503 59.8765 71.715 61.3085 70.283L71.5826 60.0088C71.9347 59.6573 72.2141 59.2398 72.4047 58.7802C72.5953 58.3207 72.6934 57.828 72.6934 57.3304C72.6934 56.8329 72.5953 56.3402 72.4047 55.8807C72.2141 55.4211 71.9347 55.0036 71.5826 54.6521L56.429 39.4947ZM55.9479 64.9224C51.22 64.8428 35.0435 63.5737 22.3335 50.8599C9.58175 38.1081 8.34674 21.8749 8.27097 17.2417L15.8667 9.64594L25.6635 19.4427L20.7651 24.3411C20.3198 24.7861 19.9924 25.335 19.8125 25.9382C19.6326 26.5414 19.6058 27.18 19.7346 27.7961C19.8256 28.2318 22.0494 38.5627 28.3381 44.8515C34.6268 51.1402 44.9578 53.364 45.3934 53.4549C46.0092 53.5874 46.6484 53.5627 47.2522 53.3833C47.856 53.2039 48.4049 52.8755 48.8485 52.4283L53.7506 47.5299L63.5474 57.3267L55.9479 64.9224Z" fill="black"/>
</svg>
