<svg width="58" height="72" viewBox="0 0 58 72" fill="none" xmlns="http://www.w3.org/2000/svg">
<g clip-path="url(#clip0_12_83)">
<path d="M29 42.5C36.9967 42.5 43.5 36.221 43.5 28.5C43.5 20.779 36.9967 14.5 29 14.5C21.0032 14.5 14.5 20.779 14.5 28.5C14.5 36.221 21.0032 42.5 29 42.5ZM29 21.5C32.9984 21.5 36.25 24.6395 36.25 28.5C36.25 32.3605 32.9984 35.5 29 35.5C25.0016 35.5 21.75 32.3605 21.75 28.5C21.75 24.6395 25.0016 21.5 29 21.5Z" fill="black"/>
<path d="M26.9338 70.8403C27.5367 71.2693 28.2591 71.5 29 71.5C29.7409 71.5 30.4633 71.2693 31.0662 70.8403C32.1492 70.077 57.603 51.7624 57.4997 28.9002C57.4997 13.2411 44.714 0.5 29 0.5C13.286 0.5 0.500314 13.2411 0.500314 28.8825C0.397002 51.7624 25.8508 70.077 26.9338 70.8403ZM29 7.60006C40.7882 7.60006 50.3748 17.1532 50.3748 28.918C50.4496 44.673 34.7427 58.8199 29 63.4598C23.2609 58.8163 7.55042 44.6659 7.62524 28.9002C7.62524 17.1532 17.2118 7.60006 29 7.60006Z" fill="black"/>
</g>
<defs>
<clipPath id="clip0_12_83">
<rect width="57" height="71" fill="white" transform="translate(0.5 0.5)"/>
</clipPath>
</defs>
</svg>
