<svg width="70" height="72" viewBox="0 0 70 72" fill="none" xmlns="http://www.w3.org/2000/svg">
<path d="M68.8484 1.66199C68.4592 1.25903 67.9674 0.980035 67.4308 0.857809C66.8943 0.735584 66.3354 0.775208 65.8198 0.972024L2.3615 24.9708C1.81422 25.1867 1.34305 25.5706 1.01056 26.0716C0.678071 26.5726 0.5 27.1669 0.5 27.7756C0.5 28.3844 0.678071 28.9787 1.01056 29.4797C1.34305 29.9807 1.81422 30.3646 2.3615 30.5805L30.0524 42.0999L41.1287 70.8984C41.3368 71.4426 41.6935 71.9115 42.1549 72.2473C42.6162 72.5832 43.1619 72.7712 43.7248 72.7883C44.3077 72.7759 44.8733 72.58 45.347 72.2266C45.8207 71.8732 46.1804 71.3787 46.3785 70.8084L69.4542 4.81183C69.6507 4.28108 69.6981 3.70317 69.5909 3.14548C69.4836 2.58779 69.2261 2.0733 68.8484 1.66199ZM43.7248 61.3889L35.6771 40.39L49.4937 26.0207L45.4266 21.791L31.4946 36.2802L11.4187 27.7906L61.9834 8.80162L43.7248 61.3889Z" fill="black"/>
</svg>
