<svg width="202" height="55" viewBox="0 0 202 55" fill="none" xmlns="http://www.w3.org/2000/svg">
<g clip-path="url(#clip0_8_13)">
<path d="M46.3139 20.2673V16.0713C46.3139 10.6878 42.118 6.17519 36.8136 5.77935L30.2426 5.14599C25.5716 4.82932 20.8215 4.82932 16.0713 5.14599L9.57946 5.77935C4.19596 6.17519 -7.62939e-06 10.6878 -7.62939e-06 16.0713V20.2673C-7.62939e-06 25.9675 4.5918 30.5593 10.292 30.5593H16.0713C18.2089 30.5593 20.2673 29.9259 22.0882 28.6592L23.1965 27.8675L24.3049 28.6592C26.0466 29.9259 28.105 30.5593 30.3218 30.5593H36.1011C41.7221 30.5593 46.3139 25.9675 46.3139 20.2673ZM25.73 26.6008L24.3049 25.5716C23.9882 25.3341 23.5924 25.255 23.1965 25.255C22.8007 25.255 22.4049 25.4133 22.0882 25.5716L20.6631 26.6008C19.3173 27.5509 17.813 28.0259 16.1505 28.0259H10.3711C6.09602 28.0259 2.61257 24.5424 2.61257 20.2673V16.0713C2.61257 12.0337 5.77934 8.62943 9.81696 8.31276L16.3088 7.67941C20.9006 7.36273 25.5716 7.36273 30.0843 7.67941L36.6553 8.31276C40.6929 8.62943 43.8597 12.0337 43.8597 16.0713V20.2673C43.8597 24.5424 40.3762 28.0259 36.1011 28.0259H30.3218C28.5801 28.0259 26.9967 27.5509 25.73 26.6008Z" fill="white"/>
<path d="M42.118 20.2673V16.0713C42.118 12.9046 39.6637 10.2128 36.497 9.97531L29.9259 9.34195C25.4133 9.10445 20.9006 9.10445 16.388 9.42113L9.81696 10.0545C6.6502 10.292 4.19595 12.9837 4.19595 16.1505V20.3465C4.19595 23.6716 6.8877 26.4425 10.292 26.4425H16.0713C17.338 26.4425 18.6047 26.0466 19.6339 25.3341L21.059 24.3049C22.3257 23.4341 23.9882 23.4341 25.1758 24.3049L26.6008 25.3341C27.63 26.0466 28.8967 26.4425 30.1634 26.4425H35.9428C39.347 26.3633 42.118 23.6716 42.118 20.2673ZM28.105 23.1966L26.68 22.1674C25.6508 21.3757 24.3841 21.059 23.1174 21.059C21.8507 21.059 20.6631 21.4548 19.5548 22.1674L18.1297 23.1966C17.4964 23.5924 16.7838 23.8299 16.0713 23.8299H10.292C8.31275 23.8299 6.72937 22.2465 6.72937 20.2673V16.0713C6.72937 14.2504 8.15441 12.6671 10.0545 12.5087L16.5463 11.8754C20.9006 11.5587 25.3341 11.5587 29.6884 11.8754L36.2595 12.5087C38.0803 12.6671 39.5846 14.1713 39.5846 16.0713V20.2673C39.5846 22.2465 38.0012 23.8299 36.0219 23.8299H30.2426C29.4509 23.8299 28.7384 23.5924 28.105 23.1966Z" fill="white"/>
<path d="M15.3588 14.5671C14.8838 14.0921 14.0921 14.0921 13.5379 14.5671L9.89613 18.2089C9.42112 18.6839 9.42112 19.4756 9.89613 20.0298C10.1336 20.2673 10.4503 20.4256 10.767 20.4256C11.0837 20.4256 11.4003 20.2673 11.6379 20.0298L15.2796 16.388C15.8338 15.8338 15.8338 15.0421 15.3588 14.5671Z" fill="white"/>
<path d="M17.4964 15.5963L13.8546 19.2381C13.3796 19.7131 13.3796 20.5048 13.8546 21.059C14.0921 21.2965 14.4088 21.4548 14.7255 21.4548C15.0421 21.4548 15.3588 21.2965 15.5963 21.059L19.2381 17.4172C19.7131 16.9422 19.7131 16.1505 19.2381 15.5963C18.7631 15.0421 17.9714 15.1213 17.4964 15.5963Z" fill="white"/>
<path d="M32.1427 14.5671C31.6676 14.0921 30.876 14.0921 30.3218 14.5671L26.68 18.2089C26.205 18.6839 26.205 19.4756 26.68 20.0298C26.9175 20.2673 27.2342 20.4256 27.5509 20.4256C27.8675 20.4256 28.1842 20.2673 28.4217 20.0298L32.0635 16.388C32.6177 15.8338 32.6177 15.0421 32.1427 14.5671Z" fill="white"/>
<path d="M36.0219 15.5963C35.5469 15.1213 34.7552 15.1213 34.2011 15.5963L30.5593 19.2381C30.0843 19.7131 30.0843 20.5048 30.5593 21.059C30.7968 21.2965 31.1135 21.4548 31.4301 21.4548C31.7468 21.4548 32.0635 21.2965 32.301 21.059L35.9428 17.4172C36.497 16.9422 36.497 16.1505 36.0219 15.5963Z" fill="white"/>
<path d="M53.2808 -1.90735e-06H48.4515C47.8973 -1.90735e-06 47.3431 0.475013 47.3431 1.10837V39.7429C47.3431 39.9012 47.3431 39.9804 47.4223 40.1387C46.9473 40.1387 46.4723 40.4554 46.3931 40.9304C46.3139 41.1679 46.3139 41.4846 46.4723 41.7221C46.2348 41.8013 45.9973 41.9596 45.8389 42.118C45.6806 42.3555 45.6014 42.6722 45.6806 42.9888C45.3639 42.9097 45.1264 42.9888 44.8889 43.2263C44.6514 43.3847 44.5722 43.6222 44.4931 43.8597C44.4139 43.8597 44.2555 43.7805 44.1764 43.7805C44.018 43.7805 43.9389 43.7805 43.7805 43.8597L41.8805 44.5722C41.9596 43.9389 41.8805 43.3847 41.643 42.8305C41.4055 42.2763 40.8513 41.9596 40.2971 42.1971C39.7429 42.4347 39.4262 42.9888 39.6637 43.543C39.9804 44.4139 39.5054 45.4431 38.6345 45.7598L37.0512 46.3139C36.1803 46.6306 35.1511 46.1556 34.8344 45.2847C34.5969 44.7306 34.0427 44.4139 33.4885 44.6514C32.9344 44.8889 32.6177 45.4431 32.8552 45.9973C33.0927 46.5514 33.4094 47.1056 33.8844 47.5015L32.0635 48.1348C31.5093 48.3723 31.1926 48.9265 31.4301 49.4807L33.0927 53.9933C33.1719 54.2308 33.4094 54.4684 33.6469 54.6267C33.8052 54.7059 33.9636 54.7059 34.1219 54.7059C34.2802 54.7059 34.3594 54.7059 34.5177 54.6267L46.2348 50.1141C46.3139 50.1141 46.3139 50.0349 46.3931 50.0349C46.3931 50.0349 46.3931 50.0349 46.4723 49.9557C46.5514 49.8765 46.6306 49.7974 46.7098 49.7182C46.7098 49.7182 46.7098 49.7182 46.7098 49.639C46.789 49.4807 46.8681 49.3224 46.8681 49.0849C46.8681 49.0057 46.8681 48.9265 46.8681 48.8473C46.8681 48.7682 46.8681 48.689 46.789 48.6098L45.7598 45.9181L47.5015 48.214C47.739 48.4515 48.0557 48.6098 48.3723 48.6098C48.6098 48.6098 48.8474 48.5307 49.0057 48.3723C49.4807 47.9765 49.5599 47.3431 49.2432 46.8681L47.0265 44.0972L50.1932 46.1556C50.3516 46.3139 50.5891 46.3139 50.7474 46.3139C51.0641 46.3139 51.4599 46.1556 51.6183 45.8389C51.935 45.3639 51.7766 44.6514 51.3016 44.3347L48.6098 42.5138L51.6974 43.3847C51.7766 43.3847 51.8558 43.4639 52.0141 43.4639C52.4891 43.4639 52.885 43.1472 53.0433 42.6722C53.2017 42.118 52.885 41.4846 52.3308 41.3263L49.9557 40.6138H53.2808C53.835 40.6138 54.3892 40.1387 54.3892 39.5054V1.0292C54.3892 0.475012 53.9142 -1.90735e-06 53.2808 -1.90735e-06ZM34.8344 52.1725L33.8844 49.639L37.922 48.1348L38.6345 47.8973L43.6222 45.9973L44.5722 48.5307L34.8344 52.1725ZM52.2516 38.5554H49.5599V2.13757H52.2516V38.5554Z" fill="white"/>
<path d="M65.267 10.8778H68.1344L76.8786 31.2864L85.7832 10.8778H88.6682L77.1635 37.288H76.5936L65.267 10.8778ZM98.5345 16.7555C101.538 16.7555 104.032 17.8418 106.014 20.0146C107.807 22.0092 108.704 24.3659 108.704 27.0848C108.704 29.8037 107.754 32.1812 105.854 34.2173C103.954 36.2534 101.515 37.2715 98.5345 37.2716C95.5425 37.2716 93.0997 36.2535 91.206 34.2173C89.3123 32.1811 88.3654 29.8036 88.3655 27.0848C88.3655 24.3778 89.2619 22.027 91.0546 20.0324C93.0374 17.8478 95.5307 16.7555 98.5345 16.7555ZM98.5345 19.2138C96.4568 19.2138 94.6699 19.9855 93.174 21.529C91.678 23.0724 90.93 24.9364 90.9299 27.121C90.9299 28.5339 91.2713 29.8547 91.954 31.0836C92.6367 32.3124 93.5598 33.2563 94.7234 33.9151C95.887 34.574 97.1573 34.9035 98.5345 34.9036C99.9354 34.9036 101.215 34.5741 102.372 33.9151C103.53 33.2562 104.447 32.3123 105.124 31.0836C105.801 29.8548 106.139 28.5339 106.139 27.1209C106.139 24.9363 105.391 23.0723 103.895 21.5289C102.399 19.9854 100.612 19.2137 98.5345 19.2138ZM111.232 17.2552H113.886L120.6 32.304L127.118 17.2552H129.807L118.142 43.9152H115.489L119.246 35.3134L111.232 17.2552ZM142.256 16.7555C145.26 16.7555 147.753 17.8418 149.736 20.0146C151.564 21.9973 152.478 24.3541 152.478 27.0848C152.502 33.8285 152.502 37.2538 152.478 37.3607H149.825V32.9263C148.436 35.5145 145.913 36.963 142.256 37.2717C139.264 37.2717 136.821 36.2536 134.927 34.2174C133.034 32.1812 132.087 29.8037 132.087 27.0849C132.087 24.3779 132.983 22.0271 134.776 20.0325C136.759 17.8479 139.252 16.7555 142.256 16.7555ZM142.256 19.2138C140.178 19.2138 138.391 19.9855 136.895 21.529C135.399 23.0724 134.651 24.9364 134.651 27.121C134.651 28.5339 135.034 29.8933 135.8 31.1993C136.566 32.5053 137.863 33.6095 139.691 34.5118C144.274 35.5329 147.533 33.4492 149.469 28.2608C149.575 26.5986 149.397 25.0077 148.934 23.4879C148.602 22.7993 148.145 22.1463 147.563 21.5289C146.103 19.9855 144.334 19.2138 142.256 19.2138ZM176.716 32.8195C176.716 35.5621 176.472 37.5686 175.986 38.839C175.333 40.6318 174.19 42.012 172.557 42.9796C170.925 43.9473 168.969 44.4311 166.689 44.4311C165.003 44.4311 163.495 44.1936 162.166 43.7187C160.836 43.2438 159.75 42.6086 158.907 41.8132C158.064 41.0177 157.292 39.8542 156.592 38.3225H159.316C160.064 39.6167 161.023 40.5724 162.192 41.1898C163.362 41.8072 164.819 42.1159 166.565 42.1159C168.274 42.1159 169.72 41.7953 170.901 41.1542C172.083 40.513 172.923 39.7116 173.421 38.7499C173.92 37.7881 174.169 36.2268 174.169 34.066V33.0687C173.231 34.2678 172.077 35.188 170.705 35.8291C169.334 36.4702 167.888 36.7908 166.369 36.7908C164.576 36.7908 162.887 36.3455 161.302 35.4551C159.717 34.5646 158.494 33.3625 157.633 31.8488C156.773 30.3351 156.342 28.6759 156.342 26.8711C156.342 25.0664 156.79 23.3834 157.687 21.8222C158.583 20.2609 159.827 19.0261 161.418 18.1178C163.009 17.2094 164.677 16.7553 166.422 16.7554C167.894 16.7554 169.23 16.9809 170.429 17.4321C171.438 17.8002 172.632 18.5066 174.009 19.5514C175.172 20.5131 176.087 22.3474 176.751 25.0544C176.728 25.4106 176.716 27.9992 176.716 32.8195ZM166.744 19.1773C165.319 19.1773 163.998 19.5216 162.781 20.2102C161.564 20.8989 160.608 21.8487 159.914 23.0597C159.219 24.2707 158.872 25.5827 158.872 26.9955C158.872 29.1445 159.59 30.9195 161.027 32.3204C162.463 33.7214 164.321 34.4219 166.601 34.4218C168.928 34.4218 170.792 33.7273 172.193 32.3382C173.594 30.9491 174.294 29.1207 174.294 26.853C174.294 25.3808 173.971 24.0688 173.324 22.9172C172.677 21.7655 171.763 20.8543 170.581 20.1835C169.4 19.5127 168.121 19.1773 166.744 19.1773ZM198.497 30.3085L200.599 31.4305C199.922 32.7959 199.127 33.8941 198.212 34.7252C197.298 35.5563 196.271 36.1885 195.131 36.6218C193.992 37.0551 192.703 37.2718 191.267 37.2718C188.085 37.2718 185.598 36.23 183.805 34.1463C182.012 32.0627 181.116 29.7089 181.116 27.085C181.116 24.6035 181.876 22.3952 183.395 20.46C185.319 17.9904 187.901 16.7556 191.142 16.7556C194.455 16.7556 197.108 18.0201 199.103 20.549C200.516 22.3299 201.228 24.5501 201.24 27.2096H183.698C183.746 29.4892 184.47 31.3562 185.871 32.8106C187.272 34.265 188.999 34.9922 191.053 34.9922C192.051 34.9922 193.018 34.8171 193.956 34.4669C194.894 34.1166 195.693 33.6565 196.352 33.0867C197.01 32.5168 197.726 31.5907 198.497 30.3085ZM198.497 25.0548C198.165 23.7131 197.678 22.6416 197.037 21.8402C196.396 21.0388 195.547 20.3917 194.49 19.8989C193.434 19.4062 192.324 19.1598 191.16 19.1599C189.249 19.1599 187.604 19.7772 186.227 21.012C185.23 21.9143 184.476 23.2619 183.965 25.0547L198.497 25.0548Z" fill="white"/>
</g>
<defs>
<clipPath id="clip0_8_13">
<rect width="201.24" height="54.7059" fill="white"/>
</clipPath>
</defs>
</svg>
